<?xml version="1.0" encoding="UTF-8"?> <!-- Generator: Adobe Illustrator 27.0.0, SVG Export Plug-In . SVG Version: 6.00 Build 0) --> <svg xmlns="http://www.w3.org/2000/svg" xmlns:xlink="http://www.w3.org/1999/xlink" version="1.1" id="Bloom_Logo_00000116225723928586707770000009125274581021433270_" x="0px" y="0px" viewBox="0 0 250 270" style="enable-background:new 0 0 250 270;" xml:space="preserve"> <style type="text/css"> .st0{fill:#FFFFFF;} .st1{fill:url(#SVGID_1_);} .st2{fill:url(#SVGID_00000154385327789166678390000001360391396643582605_);} </style> <g id="Text"> <g> <path class="st0" d="M57.9,198c0,6.4-5.3,10.1-15.2,10.1h-20v-37h18.9c9.7,0,14.5,4,14.5,9.7c0,3.5-1.8,6.4-5,8 C55.3,190.3,57.9,193.5,57.9,198z M33.1,178.7v7.1h7.2c3.5,0,5.3-1.2,5.3-3.6c0-2.3-1.8-3.5-5.3-3.5H33.1z M47.3,196.8 c0-2.5-1.9-3.8-5.5-3.8h-8.8v7.5h8.8C45.4,200.6,47.3,199.4,47.3,196.8z"></path> <path class="st0" d="M63.3,171.2h10.5v28.7h17.6v8.3H63.3V171.2z"></path> <path class="st0" d="M93,189.6c0-11.1,8.7-19.2,20.5-19.2s20.5,8.1,20.5,19.2c0,11.1-8.7,19.2-20.5,19.2S93,200.7,93,189.6z M123.6,189.6c0-6.4-4.4-10.6-10-10.6c-5.6,0-10,4.2-10,10.6c0,6.4,4.4,10.6,10,10.6C119.2,200.2,123.6,196,123.6,189.6z"></path> <path class="st0" d="M137.7,189.6c0-11.1,8.7-19.2,20.5-19.2c11.8,0,20.5,8.1,20.5,19.2c0,11.1-8.7,19.2-20.5,19.2 C146.4,208.9,137.7,200.7,137.7,189.6z M168.3,189.6c0-6.4-4.4-10.6-10-10.6c-5.6,0-10,4.2-10,10.6c0,6.4,4.4,10.6,10,10.6 C163.9,200.2,168.3,196,168.3,189.6z"></path> <path class="st0" d="M217.7,208.1l-0.1-19.6l-9.5,16h-4.6l-9.5-15.4v19.1h-9.7v-37h8.6l13,21.3l12.7-21.3h8.6l0.1,37H217.7z"></path> <path class="st0" d="M67.6,255.8l-0.1-19.6l-9.5,16h-4.6l-9.5-15.4v19.1h-9.7v-37h8.6l13,21.3l12.7-21.3h8.6l0.1,37H67.6z"></path> <path class="st0" d="M114.3,247.7v8.1H84.6v-37h29v8.1H95v6.2h16.4v7.8H95v6.8H114.3z"></path> <path class="st0" d="M120.1,218.8h17.5c12.3,0,20.7,7.1,20.7,18.5c0,11.4-8.4,18.5-20.7,18.5h-17.5V218.8z M137.2,247.4 c6.3,0,10.5-3.8,10.5-10.1c0-6.4-4.2-10.1-10.5-10.1h-6.6v20.3H137.2z"></path> <path class="st0" d="M163.7,218.8h10.5v37h-10.5V218.8z"></path> <path class="st0" d="M206.4,248.6h-15.6l-2.9,7.2h-10.7l16.3-37h10.3l16.4,37h-10.9L206.4,248.6z M203.3,240.9l-4.8-11.8 l-4.8,11.8H203.3z"></path> </g> </g> <g id="Icon"> <linearGradient id="SVGID_1_" gradientUnits="userSpaceOnUse" x1="58.5914" y1="80.6448" x2="191.4086" y2="80.6448"> <stop offset="0" style="stop-color:#FFCB85"></stop> <stop offset="0.2176" style="stop-color:#EEBC79"></stop> <stop offset="0.6492" style="stop-color:#C0935B"></stop> <stop offset="1" style="stop-color:#976F40"></stop> <stop offset="1" style="stop-color:#976F40"></stop> </linearGradient> <path class="st1" d="M125,147.1c-36.6,0-66.4-29.8-66.4-66.4S88.4,14.2,125,14.2c4.6,0,9.1,0.5,13.6,1.4 c30.6,6.4,52.8,33.7,52.8,65C191.4,117.2,161.6,147.1,125,147.1z M125,26.9c-29.6,0-53.7,24.1-53.7,53.7s24.1,53.7,53.7,53.7 s53.7-24.1,53.7-53.7c0-25.3-17.9-47.4-42.7-52.6C132.4,27.3,128.7,26.9,125,26.9z"></path> <linearGradient id="SVGID_00000031188336885583331980000013463886471127754127_" gradientUnits="userSpaceOnUse" x1="88.3863" y1="85.5233" x2="161.4458" y2="85.5233"> <stop offset="0" style="stop-color:#FFCB85"></stop> <stop offset="0.2176" style="stop-color:#EEBC79"></stop> <stop offset="0.6492" style="stop-color:#C0935B"></stop> <stop offset="1" style="stop-color:#976F40"></stop> <stop offset="1" style="stop-color:#976F40"></stop> </linearGradient> <path style="fill:url(#SVGID_00000031188336885583331980000013463886471127754127_);" d="M159.7,76.1c-1.9-9.1-2-18.1-1-26.9 c-5.4,0.7-23,7.5-23.9,8.5l-9.8-10.6l-9.8,10.6c-1-1-18.5-7.7-23.9-8.5c5.5,25.4-18.4,55.8,16.9,71.1c10.6,4.6,22.1,4.8,32.9,0.3 C165.1,111.7,162.5,91.8,159.7,76.1z M107,105.4c-7.4-5.4-6.5-13.5-4.2-27.3c0.6-3.8,1.3-7.8,1.7-11.7c4.6,2,8.7,4.6,12.2,7.7 C110.5,83,107.1,93.7,107,105.4z M143,105.4c-1.6,1.2-3.5,2.2-6,3.1l-0.2,0.1c-2.4,1-4.6,1.7-6.7,2.1v0.1c-1.4,0.3-3,0.5-4.8,0.5 c-0.1,0-0.1,0-0.2,0c-0.1,0-0.2,0-0.4,0c-1.8,0-3.4-0.2-4.8-0.5v-0.1c-0.9-9.7,0.9-18.7,5.1-26.1c2.2-3.9,5-7.4,8.4-10.5 c3.5-3.1,7.5-5.7,12.2-7.7c0.4,4,1,7.9,1.7,11.7C149.4,92,150.4,100.1,143,105.4z"></path> </g> </svg> 